<svg id="Layer_1" data-name="Layer 1" xmlns="http://www.w3.org/2000/svg" viewBox="0 0 47.29 46.98"><defs><style>.cls-1{fill:#fff;}</style></defs><title>Artboard 1</title><circle cx="23.79" cy="23.53" r="23.1"/><path class="cls-1" d="M37.44,14.89c-.45.58-.87,1.19-1.36,1.73s-1.27,1.3-1.86,1.9l-5.55-5.59a38.12,38.12,0,0,1,2.83-2.61,2.24,2.24,0,0,1,2.84.34q1.29,1.23,2.52,2.53a5,5,0,0,1,.58,1Z"/><path class="cls-1" d="M10.14,36.24l1.08-4.63c.11-.46.21-.93.31-1.36l5.37,5.4-3.3.82c-.8.2-1.61.37-2.41.58a.88.88,0,0,1-1.06-.33Z"/><path class="cls-1" d="M32.5,20.1,18.62,34l-5.43-5.43,13.9-13.86Z"/></svg>
