<?xml version="1.0" encoding="utf-8"?>
<!-- Generator: Adobe Illustrator 21.0.0, SVG Export Plug-In . SVG Version: 6.00 Build 0)  -->
<svg version="1.1" id="Layer_1" xmlns="http://www.w3.org/2000/svg" xmlns:xlink="http://www.w3.org/1999/xlink" x="0px" y="0px"
	 viewBox="0 0 20 17.5" style="enable-background:new 0 0 20 17.5;" xml:space="preserve">
<title>Artboard 1</title>
<g>
	<path d="M10.1,0.5C6.5,0.5,3.6,3.4,3.6,7c0,3.6,2.9,6.5,6.5,6.5c1.5,0,2.8-0.5,3.9-1.3l4.7,4.7C18.7,17,18.9,17,19,17
		s0.3,0,0.4-0.1c0.2-0.2,0.2-0.5,0-0.7l-4.6-4.6c1.1-1.2,1.8-2.8,1.8-4.5C16.6,3.4,13.7,0.5,10.1,0.5L10.1,0.5z M10.1,12.4
		c-3,0-5.4-2.4-5.4-5.4c0-3,2.4-5.4,5.4-5.4c3,0,5.4,2.4,5.4,5.4c0,1.6-0.7,3-1.7,3.9c-0.1,0-0.2,0.1-0.2,0.1
		c-0.1,0.1-0.1,0.1-0.1,0.2C12.5,12,11.3,12.4,10.1,12.4L10.1,12.4z"/>
</g>
</svg>
